<?xml version="1.0" standalone="no"?>
<!DOCTYPE svg PUBLIC "-//W3C//DTD SVG 20010904//EN"
 "http://www.w3.org/TR/2001/REC-SVG-20010904/DTD/svg10.dtd">
<svg version="1.0" xmlns="http://www.w3.org/2000/svg"
 width="306.000000pt" height="306.000000pt" viewBox="0 0 306.000000 306.000000"
 preserveAspectRatio="xMidYMid meet">
<metadata>
Created by potrace 1.11, written by Peter Selinger 2001-2013
</metadata>
<g transform="translate(0.000000,306.000000) scale(0.100000,-0.100000)"
fill="#000000" stroke="none">
<path d="M493 3037 c-3 -4 -10 -6 -16 -4 -21 7 -150 -33 -211 -66 -121 -64
-231 -211 -256 -342 -5 -30 -9 -474 -9 -1085 -1 -1141 -3 -1103 62 -1224 43
-81 137 -173 218 -212 137 -67 104 -65 1234 -66 561 0 1043 3 1070 7 67 9 166
41 223 73 113 63 218 212 242 344 7 37 10 410 8 1115 l-3 1058 -24 60 c-75
187 -242 315 -446 340 -79 10 -2086 12 -2092 2z"/>
</g>
</svg>
